<svg width="153" height="155" viewBox="0 0 153 155" fill="none" xmlns="http://www.w3.org/2000/svg">
<path d="M152.006 154.346C132.644 149.349 123.897 149.43 107.037 149.349" stroke="#31AAB7" stroke-width="1.24914" stroke-linecap="round"/>
<path d="M151.589 151.639C127.023 146.018 119.32 145.602 90.1731 148.308" stroke="#31AAB7" stroke-width="1.24914" stroke-linecap="round"/>
<path d="M151.589 149.141C119.111 142.479 103.497 142.271 72.2681 149.141" stroke="#31AAB7" stroke-width="1.24914" stroke-linecap="round"/>
<path d="M151.589 146.643C115.364 138.315 97.4592 140.813 54.3638 149.765" stroke="#31AAB7" stroke-width="1.24914" stroke-linecap="round"/>
<path d="M151.381 144.144C100.583 131.653 55.8217 149.765 35.6272 148.725" stroke="#31AAB7" stroke-width="1.24914" stroke-linecap="round"/>
<path d="M151.173 141.538C92.0466 128.322 60.1935 149.557 18.5554 144.977" stroke="#31AAB7" stroke-width="1.24914" stroke-linecap="round"/>
<path d="M151.173 138.46C78.931 125.199 67.0642 150.598 1.06787 141.021" stroke="#31AAB7" stroke-width="1.24914" stroke-linecap="round"/>
<path d="M3.96093 127.299V101.65H21.2824V106.498H9.73475V111.532H19.987V116.269H9.73475V122.45H22.1336V127.299H3.96093ZM42.4695 127.299C42.1981 126.411 41.8897 125.498 41.5442 124.56C41.2235 123.622 40.9027 122.685 40.5819 121.747H30.5888C30.268 122.685 29.9349 123.622 29.5895 124.56C29.2687 125.498 28.9726 126.411 28.7012 127.299H22.7053C23.6676 124.535 24.5806 121.981 25.4442 119.637C26.3078 117.293 27.1467 115.085 27.961 113.012C28.7999 110.94 29.6141 108.978 30.4037 107.127C31.218 105.252 32.0569 103.426 32.9205 101.65H38.4353C39.2742 103.426 40.1008 105.252 40.915 107.127C41.7293 108.978 42.5435 110.94 43.3578 113.012C44.1967 115.085 45.048 117.293 45.9116 119.637C46.7752 121.981 47.6882 124.535 48.6505 127.299H42.4695ZM35.5483 107.461C35.425 107.831 35.2399 108.337 34.9932 108.978C34.7464 109.62 34.4627 110.36 34.1419 111.199C33.8211 112.038 33.4634 112.963 33.0686 113.975C32.6984 114.986 32.316 116.047 31.9212 117.158H39.2125C38.8177 116.047 38.4353 114.986 38.0651 113.975C37.695 112.963 37.3372 112.038 36.9918 111.199C36.671 110.36 36.3873 109.62 36.1405 108.978C35.8938 108.337 35.6964 107.831 35.5483 107.461ZM58.3735 101.354C62.2228 101.354 65.1713 102.045 67.2193 103.426C69.2673 104.783 70.2913 106.905 70.2913 109.792C70.2913 111.594 69.8718 113.062 69.0329 114.197C68.2186 115.307 67.0343 116.183 65.4798 116.825C65.9979 117.466 66.5408 118.206 67.1083 119.045C67.6758 119.859 68.231 120.723 68.7738 121.636C69.3413 122.524 69.8842 123.462 70.4023 124.449C70.9205 125.411 71.4016 126.361 71.8458 127.299H65.3687C64.8999 126.46 64.4188 125.609 63.9253 124.745C63.4565 123.881 62.963 123.042 62.4448 122.228C61.9513 121.414 61.4578 120.649 60.9644 119.934C60.4709 119.193 59.9774 118.527 59.4839 117.935H56.634V127.299H50.8602V102.02C52.1186 101.773 53.414 101.6 54.7464 101.502C56.1035 101.403 57.3125 101.354 58.3735 101.354ZM58.7066 106.276C58.2872 106.276 57.9047 106.289 57.5593 106.313C57.2385 106.338 56.9301 106.363 56.634 106.387V113.345H58.2625C60.4339 113.345 61.9883 113.074 62.926 112.531C63.8636 111.988 64.3324 111.063 64.3324 109.755C64.3324 108.497 63.8513 107.609 62.889 107.09C61.9513 106.548 60.5572 106.276 58.7066 106.276ZM91.6467 104.389C91.9428 105.4 92.2636 106.548 92.609 107.831C92.9791 109.089 93.3616 110.397 93.7564 111.754C94.1758 113.111 94.5953 114.468 95.0148 115.825C95.4342 117.182 95.8414 118.441 96.2362 119.6C96.5569 118.342 96.8777 116.973 97.1985 115.492C97.5439 114.012 97.8647 112.482 98.1608 110.903C98.4569 109.324 98.7406 107.757 99.012 106.202C99.3081 104.623 99.5795 103.106 99.8263 101.65H105.822C104.959 105.943 103.959 110.298 102.824 114.715C101.714 119.132 100.505 123.326 99.1971 127.299H93.9044C93.0408 124.93 92.2019 122.45 91.3876 119.859C90.5734 117.244 89.7715 114.629 88.9819 112.013C88.1923 114.629 87.4027 117.244 86.6131 119.859C85.8236 122.45 84.997 124.93 84.1334 127.299H78.8407C77.5329 123.326 76.3116 119.132 75.1765 114.715C74.0662 110.298 73.0792 105.943 72.2156 101.65H78.4706C78.7173 103.106 78.9887 104.623 79.2848 106.202C79.5809 107.757 79.8894 109.324 80.2101 110.903C80.5309 112.482 80.8517 114.012 81.1724 115.492C81.5179 116.973 81.8633 118.342 82.2087 119.6C82.6529 118.391 83.0847 117.108 83.5042 115.751C83.9236 114.394 84.3307 113.037 84.7255 111.68C85.1203 110.323 85.4781 109.015 85.7989 107.757C86.1443 106.498 86.4528 105.376 86.7242 104.389H91.6467ZM124.113 127.299C123.842 126.411 123.534 125.498 123.188 124.56C122.867 123.622 122.547 122.685 122.226 121.747H112.233C111.912 122.685 111.579 123.622 111.233 124.56C110.913 125.498 110.617 126.411 110.345 127.299H104.349C105.312 124.535 106.224 121.981 107.088 119.637C107.952 117.293 108.791 115.085 109.605 113.012C110.444 110.94 111.258 108.978 112.048 107.127C112.862 105.252 113.701 103.426 114.564 101.65H120.079C120.918 103.426 121.745 105.252 122.559 107.127C123.373 108.978 124.187 110.94 125.002 113.012C125.841 115.085 126.692 117.293 127.556 119.637C128.419 121.981 129.332 124.535 130.294 127.299H124.113ZM117.192 107.461C117.069 107.831 116.884 108.337 116.637 108.978C116.39 109.62 116.107 110.36 115.786 111.199C115.465 112.038 115.107 112.963 114.712 113.975C114.342 114.986 113.96 116.047 113.565 117.158H120.856C120.462 116.047 120.079 114.986 119.709 113.975C119.339 112.963 118.981 112.038 118.636 111.199C118.315 110.36 118.031 109.62 117.784 108.978C117.538 108.337 117.34 107.831 117.192 107.461ZM143.26 127.817C139.09 127.817 135.907 126.657 133.711 124.338C131.54 122.019 130.454 118.724 130.454 114.456C130.454 112.334 130.787 110.446 131.453 108.793C132.12 107.115 133.032 105.709 134.192 104.574C135.352 103.414 136.734 102.538 138.337 101.946C139.941 101.354 141.681 101.058 143.556 101.058C144.642 101.058 145.629 101.144 146.517 101.317C147.405 101.465 148.183 101.65 148.849 101.872C149.515 102.069 150.07 102.279 150.514 102.501C150.958 102.723 151.279 102.896 151.477 103.019L149.811 107.683C149.022 107.263 148.096 106.905 147.035 106.609C145.999 106.313 144.815 106.165 143.482 106.165C142.594 106.165 141.718 106.313 140.854 106.609C140.015 106.905 139.263 107.387 138.597 108.053C137.955 108.694 137.437 109.533 137.042 110.57C136.647 111.606 136.45 112.864 136.45 114.345C136.45 115.529 136.573 116.639 136.82 117.676C137.091 118.687 137.511 119.563 138.078 120.304C138.671 121.044 139.435 121.636 140.373 122.08C141.311 122.5 142.446 122.709 143.778 122.709C144.617 122.709 145.37 122.66 146.036 122.561C146.702 122.463 147.294 122.352 147.812 122.228C148.331 122.08 148.787 121.92 149.182 121.747C149.577 121.574 149.934 121.414 150.255 121.266L151.847 125.892C151.032 126.386 149.885 126.83 148.405 127.225C146.924 127.62 145.209 127.817 143.26 127.817Z" fill="black"/>
<path fill-rule="evenodd" clip-rule="evenodd" d="M29.6751 124.33C28.1616 123.432 26.4504 122.303 24.8753 121.195C25.0677 120.666 25.2577 120.146 25.4454 119.637C26.1328 117.771 26.8046 115.991 27.4608 114.297C27.6387 114.336 27.8162 114.328 27.9773 114.264C27.8163 114.328 27.639 114.335 27.4615 114.296C27.6294 113.862 27.7963 113.434 27.9622 113.012C28.8012 110.939 29.6154 108.978 30.405 107.127C31.2193 105.252 32.0582 103.426 32.9218 101.649H38.4365C39.2755 103.426 40.102 105.252 40.9163 107.127C41.7306 108.978 42.5448 110.939 43.3591 113.012C44.198 115.085 45.0493 117.293 45.9129 119.637C46.3333 120.778 46.7655 121.969 47.2093 123.21C47.0137 123.237 46.8163 123.267 46.6171 123.301C44.8092 123.613 43.0905 124.028 41.5051 124.441L40.5832 121.747H30.5901C30.2955 122.608 29.9905 123.469 29.6751 124.33ZM56.6353 124.328C56.1791 124.157 55.6412 123.971 55.03 123.794C55.252 122.979 55.3981 122.06 55.1077 121.674C54.5306 120.903 53.1896 117.64 53.2821 116.875C53.3203 116.57 53.6009 116.023 53.9194 115.402L53.9195 115.402C54.403 114.459 54.9741 113.345 54.9172 112.651C54.8649 112.038 55.3326 111.533 55.7806 111.049C56.173 110.626 56.5504 110.218 56.5504 109.769C56.5504 109.039 56.0996 105.419 55.043 103.056L55.0296 103.057C56.0861 105.422 56.5368 109.039 56.5368 109.769C56.5368 110.22 56.1591 110.628 55.7665 111.051C55.3191 111.535 54.8523 112.038 54.9035 112.651C54.9604 113.345 54.3894 114.459 53.9058 115.402L53.9058 115.402C53.5872 116.023 53.3066 116.571 53.2684 116.875C53.1741 117.641 54.517 120.903 55.094 121.674C55.3844 122.061 55.2365 122.981 55.0201 123.795C53.8755 123.463 52.4717 123.167 50.8615 123.07V102.019C52.1198 101.773 53.4153 101.6 54.7477 101.501C55.0152 101.482 55.277 101.464 55.533 101.449C55.624 101.792 55.6758 102.078 55.6464 102.255C55.599 102.544 55.4961 102.78 55.3453 102.919C55.498 102.782 55.6038 102.549 55.6534 102.256C55.6823 102.078 55.63 101.793 55.5386 101.448C56.5791 101.385 57.5245 101.353 58.3748 101.353C62.224 101.353 65.1726 102.044 67.2206 103.426C69.2686 104.783 70.2926 106.905 70.2926 109.792C70.2926 111.593 69.8731 113.061 69.0342 114.196C68.2199 115.307 67.0355 116.183 65.481 116.824C65.9992 117.466 66.542 118.206 67.1096 119.045C67.5118 119.622 67.9079 120.224 68.2978 120.851C67.7498 121.071 67.197 121.308 66.6625 121.576C65.81 122.002 64.4569 122.644 63.0797 123.256C62.8728 122.909 62.6616 122.566 62.4461 122.228C61.9526 121.414 61.4591 120.649 60.9656 119.933C60.4721 119.193 59.9786 118.527 59.4852 117.934H56.6353V124.328ZM93.6157 126.496C92.854 124.371 92.1117 122.159 91.3889 119.859C90.5747 117.244 89.7727 114.628 88.9832 112.013L87.059 118.386C86.5362 118.283 85.9324 118.193 85.3095 118.099H85.3094C84.4868 117.976 83.6309 117.848 82.8843 117.679C83.0943 117.054 83.3013 116.411 83.5054 115.751C83.9249 114.394 84.332 113.037 84.7268 111.679C85.1216 110.322 85.4794 109.015 85.8002 107.756C86.1456 106.498 86.454 105.375 86.7254 104.388H91.648C91.9441 105.4 92.2649 106.547 92.6103 107.83C92.9804 109.089 93.3629 110.396 93.7577 111.753L95.0161 115.825C95.4355 117.182 95.8426 118.44 96.2374 119.6C96.5582 118.342 96.879 116.972 97.1997 115.492C97.5452 114.011 97.866 112.481 98.162 110.902C98.4581 109.323 98.7419 107.756 99.0133 106.202C99.3094 104.623 99.5808 103.105 99.8276 101.649H105.823C104.96 105.943 103.961 110.298 102.826 114.714C101.872 118.507 100.846 122.136 99.7469 125.601C99.2188 125.61 98.7467 125.608 98.4077 125.607H98.4076L98.2726 125.606L98.1495 125.606C97.7087 125.606 97.0573 125.848 96.3746 126.102C95.373 126.474 94.3042 126.871 93.7344 126.566C93.6955 126.545 93.6559 126.522 93.6157 126.496ZM122.612 107.244C122.595 107.205 122.577 107.166 122.56 107.127C121.746 105.252 120.919 103.426 120.08 101.649H114.566C113.702 103.426 112.863 105.252 112.049 107.127C111.259 108.978 110.445 110.939 109.606 113.012C108.903 114.802 108.181 116.694 107.441 118.687C108.773 117.348 110.514 115.645 110.823 115.568C110.991 115.525 111.224 115.537 111.494 115.551C112.057 115.579 112.777 115.615 113.383 115.183C113.631 115.007 113.957 114.997 114.304 115.1C114.442 114.719 114.579 114.343 114.714 113.974C115.109 112.963 115.466 112.037 115.787 111.198C116.108 110.359 116.392 109.619 116.638 108.978C116.885 108.336 117.07 107.83 117.194 107.46C117.342 107.83 117.539 108.336 117.786 108.978C118.032 109.619 118.316 110.359 118.637 111.198C118.9 111.837 119.17 112.526 119.448 113.265C120.389 111.531 121.45 109.46 121.45 108.783C121.45 108.225 122.058 107.705 122.612 107.244ZM136.607 112.244C135.762 113.28 134.844 113.365 134.374 113.005C133.858 112.622 133.222 111.088 132.709 109.422C132.522 108.813 132.215 108.359 131.819 107.953C132.441 106.64 133.233 105.513 134.193 104.573C135.353 103.414 136.735 102.538 138.339 101.945C139.943 101.353 141.682 101.057 143.557 101.057C144.643 101.057 145.63 101.143 146.518 101.316C147.407 101.464 148.184 101.649 148.85 101.871C149.516 102.069 150.071 102.279 150.516 102.501C150.96 102.723 151.28 102.895 151.478 103.019L150.41 106.01C149.588 105.997 148.866 105.996 148.455 106.224C148.091 106.426 148.008 106.667 148.041 106.922C147.721 106.811 147.386 106.706 147.036 106.609C146 106.313 144.816 106.165 143.483 106.165C142.595 106.165 141.719 106.313 140.856 106.609C140.017 106.905 139.264 107.386 138.598 108.052C137.956 108.694 137.438 109.533 137.043 110.569C136.851 111.075 136.705 111.633 136.607 112.244ZM117.321 117.157H116.405C116.427 117.224 116.444 117.291 116.457 117.357C116.607 118.101 116.928 117.808 117.321 117.157ZM81.6071 117.291C81.4626 116.711 81.3182 116.111 81.1737 115.492C80.8529 114.011 80.5322 112.481 80.2114 110.902C79.982 109.773 79.7589 108.65 79.5421 107.533C79.4777 107.753 79.4262 107.987 79.3921 108.236C79.2064 109.595 79.2996 110.637 79.3897 111.641L79.3897 111.642L79.3898 111.642C79.4395 112.198 79.4883 112.743 79.4883 113.324C79.4883 114.007 79.7904 114.579 80.1349 115.232C80.3698 115.676 80.6244 116.158 80.8164 116.738C80.8236 116.745 80.8308 116.749 80.8378 116.754C80.8438 116.757 80.8495 116.761 80.8548 116.765L80.8584 116.769L80.8606 116.771C80.8626 116.774 80.8645 116.776 80.8663 116.779C81.0154 116.979 81.2733 117.147 81.6071 117.291ZM79.541 107.527C79.4759 107.749 79.4239 107.985 79.3895 108.236C79.2037 109.596 79.2971 110.637 79.3871 111.641C79.4369 112.196 79.4857 112.74 79.4857 113.32C79.4857 114.003 79.7881 114.575 80.1324 115.227C80.3676 115.672 80.6224 116.155 80.8138 116.734C80.4037 116.254 79.9723 116.573 79.4427 116.964C78.9978 117.292 78.4835 117.672 77.8543 117.672C77.3542 117.672 76.691 117.699 75.9888 117.778C75.7137 116.769 75.4434 115.748 75.1778 114.714C74.0675 110.298 73.0805 105.943 72.2169 101.649H73.1128C73.3791 101.811 73.5646 101.982 73.6907 102.157C73.566 101.982 73.3821 101.811 73.1177 101.649H78.4718C78.7186 103.105 78.99 104.623 79.2861 106.202C79.3701 106.643 79.4551 107.085 79.541 107.527ZM21.2105 106.498H21.2837V101.649H5.27002C6.74662 102.777 8.43475 104.269 9.50298 106.482L9.50041 106.484C9.5815 106.652 9.66048 106.822 9.73602 106.996V106.498H21.2053C21.2051 106.47 21.205 106.442 21.205 106.414C21.205 105.456 18.7062 102.095 17.7462 102.095C17.6975 102.095 17.6481 102.097 17.598 102.102C17.6499 102.097 17.701 102.095 17.7514 102.095C18.7114 102.095 21.2102 105.454 21.2102 106.413C21.2102 106.441 21.2103 106.47 21.2105 106.498ZM11.6015 111.531C12.1453 112.328 12.7406 112.817 13.4579 113.405L13.4579 113.405L13.5863 113.511C14.2258 114.045 15.4505 114.822 16.8736 115.724L17.0507 115.836C17.4169 115.143 17.7684 114.592 18.0347 114.38C18.3132 114.157 18.705 113.894 19.1255 113.612C19.4086 113.422 19.7048 113.223 19.9882 113.022V111.531H11.6015ZM19.9882 113.025V116.269H17.7334C17.5205 116.134 17.3104 116.002 17.1041 115.872L17.0521 115.839C17.4183 115.146 17.7698 114.595 18.0361 114.383C18.3143 114.16 18.7054 113.898 19.1254 113.616C19.4085 113.426 19.7047 113.227 19.9882 113.025ZM54.2388 102.639C54.433 102.834 54.611 102.955 54.7708 103.014C54.608 102.958 54.4277 102.84 54.2321 102.64C53.8415 102.251 52.8292 102.091 51.7754 102.194C52.8317 102.089 53.8474 102.249 54.2388 102.639ZM14.0092 102.671L14.0093 102.671C14.1614 102.704 14.3201 102.738 14.4834 102.768C14.6609 102.8 14.8439 102.803 15.0299 102.785C14.8455 102.802 14.6643 102.8 14.4886 102.768C14.3272 102.738 14.1702 102.704 14.0197 102.672L14.019 102.672L14.0186 102.672L14.018 102.671L14.018 102.671C13.7147 102.606 13.4378 102.546 13.2044 102.54C13.4357 102.547 13.7095 102.606 14.0092 102.671ZM32.5441 119.262C33.4913 119.818 34.5451 120.437 34.9584 121.205C34.5441 120.439 33.4933 119.822 32.5487 119.267L32.5486 119.267C32.2733 119.105 32.0069 118.949 31.768 118.795C31.3501 118.527 30.9972 118.343 30.7265 118.201L30.7263 118.201C30.412 118.036 30.2085 117.93 30.1426 117.818C30.2104 117.929 30.413 118.035 30.7245 118.198C30.9952 118.339 31.3482 118.524 31.7662 118.792C32.0044 118.945 32.2698 119.101 32.5441 119.262ZM30.9024 113.276L30.9013 113.278C30.4567 113.098 30.1066 112.885 30.0515 112.632C29.9962 112.385 29.8852 112.314 29.7395 112.361C29.8874 112.311 29.9999 112.381 30.0553 112.63C30.1103 112.883 30.4591 113.096 30.9024 113.276ZM33.0222 109.271C32.9036 109.244 32.7847 109.2 32.6679 109.157C32.5572 109.116 32.4483 109.076 32.3435 109.052C32.4463 109.076 32.5529 109.115 32.6613 109.155L32.6613 109.155C32.7802 109.199 32.9014 109.244 33.0222 109.271ZM73.9198 104.878C73.8854 104.844 73.8561 104.808 73.8312 104.771C73.8553 104.807 73.8836 104.841 73.9164 104.873C73.9712 104.928 74.0207 104.989 74.0653 105.056C74.0216 104.991 73.9733 104.932 73.9198 104.878ZM34.9944 108.978C35.2412 108.336 35.4262 107.83 35.5496 107.46C35.6977 107.83 35.8951 108.336 36.1418 108.978C36.3885 109.619 36.6723 110.359 36.9931 111.198C37.3385 112.037 37.6963 112.963 38.0664 113.974C38.4365 114.986 38.819 116.047 39.2138 117.157H31.9225C32.3173 116.047 32.6997 114.986 33.0698 113.974C33.4646 112.963 33.8224 112.037 34.1432 111.198C34.4639 110.359 34.7477 109.619 34.9944 108.978ZM57.5606 106.313C57.906 106.288 58.2885 106.276 58.7079 106.276C60.5585 106.276 61.9526 106.547 62.8902 107.09C63.8525 107.608 64.3337 108.496 64.3337 109.755C64.3337 111.063 63.8649 111.988 62.9272 112.531C61.9896 113.074 60.4351 113.345 58.2638 113.345H56.6353V106.387C56.9314 106.362 57.2398 106.337 57.5606 106.313Z" fill="#31AAB7"/>
<path fill-rule="evenodd" clip-rule="evenodd" d="M34 43C34 19.2518 53.1438 0 76.7557 0C100.369 0 119.511 19.2532 119.511 43C119.511 66.7482 100.368 86 76.7557 86C53.1424 86 34 66.7468 34 43ZM38.7506 43C38.7506 21.8904 55.7615 4.77778 76.7557 4.77778C97.7453 4.77778 114.761 21.8858 114.761 43C114.761 64.1096 97.7499 81.2222 76.7557 81.2222C55.7661 81.2222 38.7506 64.1142 38.7506 43Z" fill="#232323"/>
<path d="M56.7415 20.3152V21.1362V21.7519L56.1258 22.1624L55.3048 22.9834L54.2786 23.3938L52.8419 25.6515L52.0209 26.8829L51.2 28.3196L51.6104 29.3459L52.2262 30.7825L51.6104 31.3983L51.2 33.4507L51.6104 34.2717V34.8874L52.4314 35.5031L53.0471 36.7346L54.6891 38.787L56.331 40.0184L58.1782 41.4551L59.8201 40.6342L62.6935 41.0446L65.7721 39.8132H66.5931L67.6193 40.0184L68.235 40.6342L68.6455 41.4551L70.6979 41.0446L71.5189 41.6604V43.5075L71.7241 44.5338L70.9032 45.56L71.7241 46.5862L72.9556 48.2281L73.9818 50.8962L74.8028 53.3591L72.7503 57.8745L74.8028 61.5688L75.2132 65.6737L76.0342 66.4946L77.2657 69.5733V70.189L77.4709 70.8047L77.6761 71.4204L78.0866 71.6257L78.4971 72.0362L78.9076 71.8309L79.7286 71.6257L80.7548 71.2152L82.602 71.01H83.0124L84.2439 70.3942L87.733 66.4946L87.9382 64.6475L88.7592 64.0317L89.7854 63.6212L89.9907 63.2108V62.3898V61.5688L89.3749 59.9269L93.8903 56.0273L93.685 52.5382L93.0693 51.512L92.864 50.4858L93.0693 49.87L92.6588 49.4596V49.2543L93.0693 47.8176L93.685 46.5862L94.3007 46.1757L97.5846 43.3023L101.484 37.7608L101.689 37.145L101.895 36.1188V35.9136L101.689 35.7083H101.484L101.279 35.9136L100.663 36.1188L99.2265 36.3241L97.7899 36.7346L96.7636 36.9398L96.3532 36.5293L95.7374 36.1188L95.5322 35.9136L96.1479 35.5031L94.506 33.6559L93.685 33.4507L93.0693 32.835L92.6588 31.3983L91.6326 30.3721L91.2221 27.9092L89.3749 24.6253L89.7854 21.7519L89.3749 20.5205L87.9382 20.3152H86.2963L85.4753 20.5205L83.8334 20.3152L81.5757 19.6995L80.96 19.0838H79.7286L78.7024 19.6995L78.9076 20.5205L78.7024 21.1362H78.0866L77.6761 20.7257L75.4185 19.4942L72.3399 18.6733L72.5451 17.4418L72.1346 16.6209L72.5451 15.7999L71.7241 15.3894H70.0822L68.6455 15.7999H68.0298H65.1564L64.1302 16.6209L62.8987 17.2366H62.4883L61.462 17.0313H60.6411L59.8201 16.6209L59.2044 17.8523L58.1782 18.6733L57.5624 18.8785L56.7415 20.3152Z" fill="black"/>
<path d="M68.645 41.4552L70.6974 41.0447L70.9027 40.2237L71.7236 39.608L72.1341 39.4027L72.7499 39.8132L74.597 36.3241V34.8874L75.6232 37.1451L74.597 37.3503L75.8285 39.1975L76.6495 38.9923L78.0861 38.3765V37.9661L79.1124 37.7608L79.9333 36.9398V36.7346L80.1386 36.5294L80.549 36.3241H80.9595V36.1189L80.549 35.7084V35.0927L80.1386 34.6822V34.2717L80.3438 34.0665L80.549 33.656L80.9595 33.4507V32.835L81.7805 32.6298L81.5753 29.7564L76.0337 26.883L75.0075 27.704L73.1603 26.883L68.645 29.9616L66.5926 30.5773L66.1821 29.5511L65.3612 29.3459L64.9507 28.7302L57.562 23.5991V24.8306H55.3043V26.883L54.4833 27.2935V28.3197H51.1995L51.6099 29.3459L52.2257 30.7826L51.6099 31.3983L51.1995 33.4507L51.6099 34.2717V34.8874L52.4309 35.5031L53.0466 36.7346L54.6886 38.787L56.3305 40.0185L58.1777 41.4552L59.8196 40.6342L62.693 41.0447L65.7716 39.8132H66.5926L67.6188 40.0185L68.2345 40.6342L68.645 41.4552Z" fill="#D9D9D9"/>
<path d="M70.6974 41.0447L70.7377 41.2459L70.8651 41.2205L70.8966 41.0945L70.6974 41.0447ZM68.645 41.4552L68.4614 41.547L68.5316 41.6872L68.6853 41.6564L68.645 41.4552ZM68.2345 40.6342L68.4181 40.5424L68.4032 40.5126L68.3797 40.4891L68.2345 40.6342ZM67.6188 40.0185L67.7639 39.8733L67.72 39.8294L67.6591 39.8172L67.6188 40.0185ZM66.5926 39.8132L66.6329 39.612L66.6129 39.608H66.5926V39.8132ZM65.7716 39.8132V39.608H65.7321L65.6954 39.6227L65.7716 39.8132ZM62.693 41.0447L62.664 41.2479L62.7183 41.2556L62.7692 41.2352L62.693 41.0447ZM59.8196 40.6342L59.8486 40.431L59.7852 40.422L59.7278 40.4506L59.8196 40.6342ZM58.1777 41.4552L58.0517 41.6172L58.1538 41.6966L58.2695 41.6387L58.1777 41.4552ZM56.3305 40.0185L56.4565 39.8564L56.4537 39.8543L56.3305 40.0185ZM54.6886 38.787L54.5283 38.9152L54.5446 38.9356L54.5654 38.9512L54.6886 38.787ZM53.0466 36.7346L52.8631 36.8264L52.8728 36.8458L52.8864 36.8628L53.0466 36.7346ZM52.4309 35.5031L52.6145 35.4114L52.5928 35.368L52.5541 35.339L52.4309 35.5031ZM51.6099 34.8874H51.4047V34.99L51.4868 35.0516L51.6099 34.8874ZM51.6099 34.2717H51.8152V34.2232L51.7935 34.1799L51.6099 34.2717ZM51.1995 33.4507L50.9982 33.4105L50.9844 33.4795L51.0159 33.5425L51.1995 33.4507ZM51.6099 31.3983L51.4648 31.2532L51.4209 31.2971L51.4087 31.3581L51.6099 31.3983ZM52.2257 30.7826L52.3708 30.9277L52.4691 30.8295L52.4143 30.7017L52.2257 30.7826ZM51.6099 29.3459L51.4193 29.4221L51.4213 29.4267L51.6099 29.3459ZM51.1995 28.3197V28.1144H50.8963L51.0089 28.3959L51.1995 28.3197ZM54.4833 28.3197V28.5249H54.6886V28.3197H54.4833ZM54.4833 27.2935L54.3915 27.1099L54.2781 27.1666V27.2935H54.4833ZM55.3043 26.883L55.3961 27.0666L55.5095 27.0098V26.883H55.3043ZM55.3043 24.8306V24.6253H55.0991V24.8306H55.3043ZM57.562 24.8306V25.0358H57.7672V24.8306H57.562ZM57.562 23.5991L57.679 23.4305L57.3567 23.2067V23.5991H57.562ZM64.9507 28.7302L65.1214 28.6163L65.0998 28.5838L65.0677 28.5616L64.9507 28.7302ZM65.3612 29.3459L65.1904 29.4597L65.2344 29.5258L65.3114 29.545L65.3612 29.3459ZM66.1821 29.5511L66.3727 29.4749L66.3337 29.3775L66.2319 29.352L66.1821 29.5511ZM66.5926 30.5773L66.402 30.6536L66.4718 30.8279L66.6516 30.7739L66.5926 30.5773ZM68.645 29.9616L68.704 30.1582L68.7344 30.1491L68.7606 30.1312L68.645 29.9616ZM73.1603 26.883L73.2437 26.6954L73.1392 26.649L73.0447 26.7134L73.1603 26.883ZM75.0075 27.704L74.9242 27.8915L75.0382 27.9422L75.1357 27.8642L75.0075 27.704ZM76.0337 26.883L76.1282 26.7008L76.0097 26.6394L75.9055 26.7227L76.0337 26.883ZM81.5753 29.7564L81.78 29.7418L81.7718 29.6271L81.6697 29.5742L81.5753 29.7564ZM81.7805 32.6298L81.8303 32.8289L81.9975 32.7871L81.9852 32.6151L81.7805 32.6298ZM80.9595 32.835L80.9098 32.6359L80.7543 32.6748V32.835H80.9595ZM80.9595 33.4507L81.0513 33.6343L81.1648 33.5776V33.4507H80.9595ZM80.549 33.656L80.4573 33.4724L80.3961 33.503L80.3655 33.5642L80.549 33.656ZM80.3438 34.0665L80.4889 34.2116L80.5125 34.188L80.5274 34.1582L80.3438 34.0665ZM80.1386 34.2717L79.9934 34.1266L79.9333 34.1867V34.2717H80.1386ZM80.1386 34.6822H79.9333V34.7672L79.9934 34.8273L80.1386 34.6822ZM80.549 35.0927H80.7543V35.0077L80.6942 34.9475L80.549 35.0927ZM80.549 35.7084H80.3438V35.7934L80.4039 35.8535L80.549 35.7084ZM80.9595 36.1189H81.1648V36.0339L81.1047 35.9737L80.9595 36.1189ZM80.9595 36.3241V36.5294H81.1648V36.3241H80.9595ZM80.549 36.3241V36.1189H80.5006L80.4573 36.1405L80.549 36.3241ZM80.1386 36.5294L80.0468 36.3458L80.017 36.3607L79.9934 36.3842L80.1386 36.5294ZM79.9333 36.7346L79.7882 36.5895L79.7281 36.6496V36.7346H79.9333ZM79.9333 36.9398L80.0785 37.085L80.1386 37.0249V36.9398H79.9333ZM79.1124 37.7608L79.1526 37.9621L79.2135 37.9499L79.2575 37.9059L79.1124 37.7608ZM78.0861 37.9661L78.0459 37.7648L77.8809 37.7978V37.9661H78.0861ZM78.0861 38.3765L78.167 38.5652L78.2914 38.5119V38.3765H78.0861ZM76.6495 38.9923L76.6992 39.1914L76.7152 39.1874L76.7303 39.1809L76.6495 38.9923ZM75.8285 39.1975L75.6577 39.3114L75.7379 39.4317L75.8783 39.3966L75.8285 39.1975ZM74.597 37.3503L74.5568 37.1491L74.2563 37.2092L74.4263 37.4642L74.597 37.3503ZM75.6232 37.1451L75.6635 37.3463L75.9171 37.2956L75.8101 37.0602L75.6232 37.1451ZM74.597 34.8874L74.7839 34.8025L74.3918 34.8874H74.597ZM74.597 36.3241L74.7784 36.4201L74.8023 36.3751V36.3241H74.597ZM72.7499 39.8132L72.636 39.984L72.825 40.11L72.9312 39.9093L72.7499 39.8132ZM72.1341 39.4027L72.248 39.232L72.1489 39.1659L72.0423 39.2192L72.1341 39.4027ZM71.7236 39.608L71.6319 39.4244L71.6153 39.4327L71.6005 39.4438L71.7236 39.608ZM70.9027 40.2237L70.7795 40.0595L70.7212 40.1032L70.7036 40.1739L70.9027 40.2237ZM70.6572 40.8434L68.6048 41.2539L68.6853 41.6564L70.7377 41.2459L70.6572 40.8434ZM68.8286 41.3634L68.4181 40.5424L68.051 40.726L68.4614 41.547L68.8286 41.3634ZM68.3797 40.4891L67.7639 39.8733L67.4737 40.1636L68.0894 40.7793L68.3797 40.4891ZM67.6591 39.8172L66.6329 39.612L66.5524 40.0145L67.5786 40.2197L67.6591 39.8172ZM66.5926 39.608H65.7716V40.0185H66.5926V39.608ZM65.6954 39.6227L62.6168 40.8541L62.7692 41.2352L65.8479 40.0038L65.6954 39.6227ZM62.722 40.8415L59.8486 40.431L59.7906 40.8374L62.664 41.2479L62.722 40.8415ZM59.7278 40.4506L58.0859 41.2716L58.2695 41.6387L59.9114 40.8178L59.7278 40.4506ZM58.3037 41.2932L56.4565 39.8565L56.2045 40.1805L58.0517 41.6172L58.3037 41.2932ZM56.4537 39.8543L54.8117 38.6228L54.5654 38.9512L56.2074 40.1827L56.4537 39.8543ZM54.8488 38.6588L53.2069 36.6064L52.8864 36.8628L54.5283 38.9152L54.8488 38.6588ZM53.2302 36.6428L52.6145 35.4114L52.2473 35.5949L52.8631 36.8264L53.2302 36.6428ZM52.5541 35.339L51.7331 34.7232L51.4868 35.0516L52.3078 35.6673L52.5541 35.339ZM51.8152 34.8874V34.2717H51.4047V34.8874H51.8152ZM51.7935 34.1799L51.383 33.3589L51.0159 33.5425L51.4264 34.3635L51.7935 34.1799ZM51.4007 33.491L51.8112 31.4386L51.4087 31.3581L50.9982 33.4105L51.4007 33.491ZM51.7551 31.5434L52.3708 30.9277L52.0805 30.6375L51.4648 31.2532L51.7551 31.5434ZM52.4143 30.7017L51.7986 29.265L51.4213 29.4267L52.037 30.8634L52.4143 30.7017ZM51.8005 29.2697L51.39 28.2435L51.0089 28.3959L51.4194 29.4221L51.8005 29.2697ZM51.1995 28.5249H54.4833V28.1144H51.1995V28.5249ZM54.6886 28.3197V27.2935H54.2781V28.3197H54.6886ZM54.5751 27.477L55.3961 27.0666L55.2125 26.6994L54.3915 27.1099L54.5751 27.477ZM55.5095 26.883V24.8306H55.0991V26.883H55.5095ZM55.3043 25.0358H57.562V24.6253H55.3043V25.0358ZM57.7672 24.8306V23.5991H57.3567V24.8306H57.7672ZM57.4449 23.7677L64.8336 28.8987L65.0677 28.5616L57.679 23.4305L57.4449 23.7677ZM64.7799 28.844L65.1904 29.4597L65.5319 29.232L65.1214 28.6163L64.7799 28.844ZM65.3114 29.545L66.1323 29.7502L66.2319 29.352L65.4109 29.1468L65.3114 29.545ZM65.9916 29.6274L66.402 30.6536L66.7832 30.5011L66.3727 29.4749L65.9916 29.6274ZM66.6516 30.7739L68.704 30.1582L68.586 29.765L66.5336 30.3808L66.6516 30.7739ZM68.7606 30.1312L73.276 27.0526L73.0447 26.7134L68.5294 29.792L68.7606 30.1312ZM73.077 27.0705L74.9242 27.8915L75.0909 27.5164L73.2437 26.6954L73.077 27.0705ZM75.1357 27.8642L76.1619 27.0433L75.9055 26.7227L74.8793 27.5437L75.1357 27.8642ZM75.9393 27.0652L81.4808 29.9386L81.6697 29.5742L76.1282 26.7008L75.9393 27.0652ZM81.3705 29.771L81.5758 32.6444L81.9852 32.6151L81.78 29.7418L81.3705 29.771ZM81.7307 32.4306L80.9098 32.6359L81.0093 33.0341L81.8303 32.8289L81.7307 32.4306ZM80.7543 32.835V33.4507H81.1648V32.835H80.7543ZM80.8677 33.2672L80.4573 33.4724L80.6408 33.8395L81.0513 33.6343L80.8677 33.2672ZM80.3655 33.5642L80.1602 33.9747L80.5274 34.1582L80.7326 33.7478L80.3655 33.5642ZM80.1987 33.9213L79.9934 34.1266L80.2837 34.4168L80.4889 34.2116L80.1987 33.9213ZM79.9333 34.2717V34.6822H80.3438V34.2717H79.9333ZM79.9934 34.8273L80.4039 35.2378L80.6942 34.9475L80.2837 34.5371L79.9934 34.8273ZM80.3438 35.0927V35.7084H80.7543V35.0927H80.3438ZM80.4039 35.8535L80.8144 36.264L81.1047 35.9737L80.6942 35.5633L80.4039 35.8535ZM80.7543 36.1189V36.3241H81.1648V36.1189H80.7543ZM80.9595 36.1189H80.549V36.5294H80.9595V36.1189ZM80.4573 36.1405L80.0468 36.3458L80.2304 36.7129L80.6408 36.5077L80.4573 36.1405ZM79.9934 36.3842L79.7882 36.5895L80.0785 36.8797L80.2837 36.6745L79.9934 36.3842ZM79.7281 36.7346V36.9398H80.1386V36.7346H79.7281ZM79.7882 36.7947L78.9672 37.6157L79.2575 37.9059L80.0785 37.085L79.7882 36.7947ZM79.0721 37.5596L78.0459 37.7648L78.1264 38.1673L79.1526 37.9621L79.0721 37.5596ZM77.8809 37.9661V38.3765H78.2914V37.9661H77.8809ZM78.0053 38.1879L76.5686 38.8036L76.7303 39.1809L78.167 38.5652L78.0053 38.1879ZM76.5997 38.7931L75.7787 38.9984L75.8783 39.3966L76.6992 39.1914L76.5997 38.7931ZM75.9993 39.0837L74.7678 37.2365L74.4263 37.4642L75.6577 39.3114L75.9993 39.0837ZM74.6373 37.5516L75.6635 37.3463L75.583 36.9438L74.5568 37.1491L74.6373 37.5516ZM75.8101 37.0602L74.7839 34.8025L74.4102 34.9724L75.4364 37.23L75.8101 37.0602ZM74.3918 34.8874V36.3241H74.8023V34.8874H74.3918ZM74.4156 36.2281L72.5685 39.7172L72.9312 39.9093L74.7784 36.4201L74.4156 36.2281ZM72.8637 39.6425L72.248 39.232L72.0203 39.5735L72.636 39.984L72.8637 39.6425ZM72.0423 39.2192L71.6319 39.4244L71.8154 39.7916L72.2259 39.5863L72.0423 39.2192ZM71.6005 39.4438L70.7795 40.0595L71.0258 40.3879L71.8468 39.7722L71.6005 39.4438ZM70.7036 40.1739L70.4983 40.9949L70.8966 41.0945L71.1018 40.2735L70.7036 40.1739Z" fill="#D9D9D9"/>
<path d="M70.4444 41.5855L68.6622 42.036L68.2513 41.1351L67.635 40.4594L66.6077 40.2341H65.786L62.7043 41.5855L59.8281 41.1351L58.1846 42.036L56.3356 40.4594L54.692 39.1079L53.0485 36.8556L52.4321 35.5041L51.6104 34.8284V34.1527L51.1995 33.2517L51.6104 30.9994L52.2267 30.3236L51.6104 28.747L51.3598 27.9724" stroke="#31AAB7" stroke-width="1.48038" stroke-linecap="round"/>
</svg>
